<?xml version="1.0" standalone="no"?>
<!DOCTYPE svg PUBLIC "-//W3C//DTD SVG 20010904//EN"
 "http://www.w3.org/TR/2001/REC-SVG-20010904/DTD/svg10.dtd">
<svg version="1.0" xmlns="http://www.w3.org/2000/svg"
 width="192.000000pt" height="192.000000pt" viewBox="0 0 192.000000 192.000000"
 preserveAspectRatio="xMidYMid meet">
<metadata>
Created by potrace 1.14, written by Peter Selinger 2001-2017
</metadata>
<g transform="translate(0.000000,192.000000) scale(0.100000,-0.100000)"
fill="#000000" stroke="none">
<path d="M1115 1843 c-56 -16 -98 -46 -54 -38 l24 4 -24 -19 c-21 -18 -21 -20
-5 -21 11 -1 22 -1 27 0 4 0 7 -4 7 -11 0 -9 3 -9 12 0 6 6 18 8 27 3 9 -5 26
-7 39 -6 13 1 25 -2 28 -6 2 -5 11 -6 18 -3 8 3 17 1 20 -5 5 -7 -97 -10 -311
-11 -394 -1 -443 -4 -517 -31 -97 -37 -180 -135 -202 -239 -4 -19 -8 -154 -8
-300 -1 -164 -5 -268 -11 -272 -7 -5 -7 -8 0 -8 6 0 10 -70 11 -188 1 -192 6
-270 21 -281 4 -3 9 -15 11 -25 4 -22 41 -77 60 -89 7 -5 10 -13 6 -18 -3 -5
-2 -8 3 -7 14 4 54 -23 48 -32 -4 -6 1 -7 11 -3 12 4 15 3 10 -5 -5 -8 -2 -10
8 -6 9 3 16 2 16 -3 0 -5 12 -10 26 -11 15 -1 33 -10 41 -20 8 -9 12 -12 8 -5
-4 8 4 12 25 10 21 -1 29 -6 25 -16 -5 -12 -3 -12 10 -1 11 9 37 13 73 11 51
-2 60 -6 85 -37 16 -19 33 -32 38 -29 5 4 9 1 9 -4 0 -6 7 -11 16 -11 8 0 13
-3 11 -8 -3 -4 17 -8 45 -10 43 -3 53 0 74 23 13 14 24 31 24 36 0 6 4 8 9 5
5 -3 8 2 7 12 -1 16 19 17 261 18 144 1 266 5 272 9 6 3 16 3 23 -1 7 -4 8 -3
4 4 -10 16 7 15 23 -1 9 -7 12 -8 7 0 -4 7 12 20 41 34 27 13 58 34 71 46 13
13 27 21 33 18 5 -3 6 1 3 9 -3 9 -1 16 5 16 6 0 11 7 11 15 0 8 4 15 9 15 5
0 12 12 16 27 4 16 11 34 17 41 17 19 19 82 20 555 1 247 5 437 10 437 5 0 20
-7 33 -16 24 -16 70 -11 60 7 -4 5 -2 9 3 9 5 0 21 28 36 63 15 34 31 69 36
78 18 34 -41 72 -110 70 -50 -1 -68 11 -114 73 -38 51 -188 123 -320 153 -56
12 -204 10 -251 -4z"/>
<path d="M635 171 c-3 -5 -2 -12 3 -15 5 -3 9 1 9 9 0 17 -3 19 -12 6z"/>
</g>
</svg>
